<svg xmlns="http://www.w3.org/2000/svg" width="1034.905" height="808.157" viewBox="0 0 1034.905 808.157">
  <g id="contact_svg" transform="translate(-0.008 0.006)">
    <path id="Path_1021" data-name="Path 1021" d="M683.84,129.27C617.49,127.36,554.3,109.52,494,90S373.84,48.89,309.08,38.55c-41.65-6.65-89.28-7.59-122.84,11C153.94,67.44,143.51,98.33,137.9,127c-4.23,21.56-6.71,44.26,4.86,64.44,8,14,22.29,25.79,32.15,39.21,34.3,46.71,10.06,104.3-27.12,149.9-17.44,21.39-37.67,41.8-51.13,64.57S77,494,88.75,517.2c11.67,23,39.48,40.31,69.61,52.48,61.19,24.7,133.3,31.77,203.61,35.78,155.64,8.86,312.12,5,468.18,1.18,57.75-1.42,115.76-2.86,172.58-10.3,31.55-4.13,64.12-10.68,87-26.5,29.08-20.08,36.28-54.09,16.8-79.27-32.68-42.24-123-52.73-145.89-98.06-12.58-24.95.34-52.75,18.61-75.89,39.2-49.64,104.91-93.19,108.37-149.93,2.37-39-29.21-78-78.05-96.44-51.19-19.33-122.18-16.9-160,15.1C810.76,118.29,742.42,131,683.84,129.27Z" transform="translate(-82.53 -34.2)" fill="#6c63ff" opacity="0.1"/>
    <circle id="Ellipse_234" data-name="Ellipse 234" cx="0.36" cy="0.36" r="0.36" transform="translate(688.94 335.71)" fill="#e6e8ec"/>
    <path id="Path_1108" data-name="Path 1108" d="M582.08,248.59,320.57,418.25l170.66,307.8a11.91,11.91,0,0,0,7.6,5.8l154.63,37.72A11.92,11.92,0,0,0,667,763.16l76.7-159.35,84.06-112.37-199.48-236a35.35,35.35,0,0,0-46.2-6.85Z" transform="translate(-82.53 -34.2)" fill="#dcdfed"/>
    <path id="Path_1109" data-name="Path 1109" d="M830.42,492.77l-.74,1L780.44,559.6l-.89,1.19-33.19,44.37-65.6,136.31-1.84,3.81-9.26,19.23a11.92,11.92,0,0,1-13.56,6.41L501.47,733.18a11.89,11.89,0,0,1-7.6-5.8L479,700.61l-2.67-4.82L369,502.13l-.92-1.65-44.86-80.9,5.42-3.52,41.09-26.65.95-.62,86.53-56.14,5.46-3.54,122.05-79.19a35.34,35.34,0,0,1,46.22,6.84l91,107.7,4,4.8,66.05,78.14.36.43,33.21,39.28,4.18,4.95Z" transform="translate(-82.53 -34.2)" opacity="0.1"/>
    <path id="Path_1110" data-name="Path 1110" d="M789.79,446.5l-8.06,56-2.43,16.9-1.39,36-.11,2.81-7.23,188.1a11.93,11.93,0,0,1-14.51,11.17l-77.94-17.4-.84-.19L477.39,695.28l-3.67-.82L363.83,669.92l2.52-169.12.08-5.65.76-51.19.84-56.5,86.53-56.14,5.46-3.54c80.26,8.23,187,24.06,259.31,35.35l4,4.8,66,78.14Z" transform="translate(-82.53 -34.2)" opacity="0.1"/>
    <g id="Group_92" data-name="Group 92" transform="translate(75 23)">
      <path id="Path_1022" data-name="Path 1022" d="M252,833.31S239.1,760.22,191.22,724c-20.09-15.2-34.79-35.87-41.21-59.41a179.251,179.251,0,0,1-5.78-34.1" transform="translate(197.47 -507.2)" fill="none" stroke="#535461" stroke-miterlimit="10" stroke-width="2"/>
      <path id="Path_1023" data-name="Path 1023" d="M114.21,607.49c4,7.83,30.73,23.68,30.73,23.68s3.36-29.61-.67-37.45-14-11.11-22.32-7.31S110.18,599.65,114.21,607.49Z" transform="translate(197.47 -507.2)" fill="#6c63ff"/>
      <path id="Path_1024" data-name="Path 1024" d="M111.66,662.28c7.9,4.51,39.44,4.11,39.44,4.11S136.87,639.81,129,635.3s-18.16-2.13-22.94,5.32A15.268,15.268,0,0,0,111.66,662.28Z" transform="translate(197.47 -507.2)" fill="#6c63ff"/>
      <path id="Path_1025" data-name="Path 1025" d="M150.87,736c9.22.13,36.23-15.25,36.23-15.25s-26.49-16.16-35.72-16.3-16.82,6.82-17,15.53S141.64,735.84,150.87,736Z" transform="translate(197.47 -507.2)" fill="#6c63ff"/>
      <path id="Path_1026" data-name="Path 1026" d="M193.83,785.43c9.06,1.61,38.44-9.25,38.44-9.25S209.05,756,200,754.42s-17.8,4-19.5,12.6S184.76,783.83,193.83,785.43Z" transform="translate(197.47 -507.2)" fill="#6c63ff"/>
      <path id="Path_1027" data-name="Path 1027" d="M183.44,653.45c-3.15,8.19-28,26.55-28,26.55s-6.58-29.12-3.43-37.31,12.74-12.42,21.41-9.45S186.59,645.27,183.44,653.45Z" transform="translate(197.47 -507.2)" fill="#6c63ff"/>
      <path id="Path_1028" data-name="Path 1028" d="M232.91,711.89c-5.6,6.93-35.12,17.43-35.12,17.43s3-29.65,8.56-36.57a17.38,17.38,0,0,1,23.42-3,15.2,15.2,0,0,1,3.14,22.14Z" transform="translate(197.47 -507.2)" fill="#6c63ff"/>
      <path id="Path_1029" data-name="Path 1029" d="M272.73,774.92c-4.28,7.72-31.49,22.78-31.49,22.78s-2.39-29.69,1.89-37.41,14.37-10.7,22.55-6.66S277,767.2,272.73,774.92Z" transform="translate(197.47 -507.2)" fill="#6c63ff"/>
      <path id="Path_1030" data-name="Path 1030" d="M114.21,607.49c4,7.83,30.73,23.68,30.73,23.68s3.36-29.61-.67-37.45-14-11.11-22.32-7.31S110.18,599.65,114.21,607.49Z" transform="translate(197.47 -507.2)" opacity="0.25"/>
      <path id="Path_1031" data-name="Path 1031" d="M111.66,662.28c7.9,4.51,39.44,4.11,39.44,4.11S136.87,639.81,129,635.3s-18.16-2.13-22.94,5.32A15.268,15.268,0,0,0,111.66,662.28Z" transform="translate(197.47 -507.2)" opacity="0.25"/>
      <path id="Path_1032" data-name="Path 1032" d="M150.87,736c9.22.13,36.23-15.25,36.23-15.25s-26.49-16.16-35.72-16.3-16.82,6.82-17,15.53S141.64,735.84,150.87,736Z" transform="translate(197.47 -507.2)" opacity="0.25"/>
      <path id="Path_1033" data-name="Path 1033" d="M193.83,785.43c9.06,1.61,38.44-9.25,38.44-9.25S209.05,756,200,754.42s-17.8,4-19.5,12.6S184.76,783.83,193.83,785.43Z" transform="translate(197.47 -507.2)" opacity="0.25"/>
      <path id="Path_1034" data-name="Path 1034" d="M183.44,653.45c-3.15,8.19-28,26.55-28,26.55s-6.58-29.12-3.43-37.31,12.74-12.42,21.41-9.45S186.59,645.27,183.44,653.45Z" transform="translate(197.47 -507.2)" opacity="0.25"/>
      <path id="Path_1035" data-name="Path 1035" d="M232.91,711.89c-5.6,6.93-35.12,17.43-35.12,17.43s3-29.65,8.56-36.57a17.38,17.38,0,0,1,23.42-3,15.2,15.2,0,0,1,3.14,22.14Z" transform="translate(197.47 -507.2)" opacity="0.25"/>
      <path id="Path_1036" data-name="Path 1036" d="M272.73,774.92c-4.28,7.72-31.49,22.78-31.49,22.78s-2.39-29.69,1.89-37.41,14.37-10.7,22.55-6.66S277,767.2,272.73,774.92Z" transform="translate(197.47 -507.2)" opacity="0.25"/>
      <path id="Path_1037" data-name="Path 1037" d="M250.38,831.39s19.57-71.76-8.65-123.2c-11.84-21.58-16.41-46.1-12.17-70.08a180,180,0,0,1,9.35-33.38" transform="translate(197.47 -507.2)" fill="none" stroke="#535461" stroke-miterlimit="10" stroke-width="2"/>
      <path id="Path_1038" data-name="Path 1038" d="M221.33,572.22c.32,8.7,17.93,33.41,17.93,33.41s15.78-25.79,15.46-34.5-8.05-15.52-17.27-15.22S221,563.51,221.33,572.22Z" transform="translate(197.47 -507.2)" fill="#6c63ff"/>
      <path id="Path_1039" data-name="Path 1039" d="M195.49,621.34c5.28,7.14,34.28,18.84,34.28,18.84s-1.6-29.74-6.88-36.89a17.35,17.35,0,0,0-23.26-3.91,15.23,15.23,0,0,0-4.14,21.96Z" transform="translate(197.47 -507.2)" fill="#6c63ff"/>
      <path id="Path_1040" data-name="Path 1040" d="M199.69,703.71c8.38,3.65,39.68-.07,39.68-.07s-17.29-24.92-25.67-28.57-18.3-.2-22.17,7.71S191.32,700.06,199.69,703.71Z" transform="translate(197.47 -507.2)" fill="#6c63ff"/>
      <path id="Path_1041" data-name="Path 1041" d="M217.74,765.36c7.61,4.94,39.12,6.25,39.12,6.25s-12.58-27.31-20.18-32.24a17.33,17.33,0,0,0-23.23,4,15.23,15.23,0,0,0,4.29,21.99Z" transform="translate(197.47 -507.2)" fill="#6c63ff"/>
      <path id="Path_1042" data-name="Path 1042" d="M264.9,640.73c-6.4,6.28-37,13.57-37,13.57s6.49-29.15,12.88-35.43a17.42,17.42,0,0,1,23.63-.44,15.16,15.16,0,0,1,.49,22.3Z" transform="translate(197.47 -507.2)" fill="#6c63ff"/>
      <path id="Path_1043" data-name="Path 1043" d="M285,713.08c-8.09,4.19-39.58,2.5-39.58,2.5s15.43-26,23.52-30.16,18.25-1.39,22.68,6.25S293.13,708.89,285,713.08Z" transform="translate(197.47 -507.2)" fill="#6c63ff"/>
      <path id="Path_1044" data-name="Path 1044" d="M294.39,785.94c-7.23,5.42-38.57,8.78-38.57,8.78s10.56-28.07,17.79-33.49a17.38,17.38,0,0,1,23.47,2.55,15.19,15.19,0,0,1-2.69,22.16Z" transform="translate(197.47 -507.2)" fill="#6c63ff"/>
    </g>
    <path id="Path_1111" data-name="Path 1111" d="M798.92,380.1l-9.49,66-8.7,60.44L778.3,523.4l-1.39,36-7.34,190.91a11.93,11.93,0,0,1-14.51,11.17l-78.78-17.59L476.39,699.28,362.83,673.92l2.6-174.77.76-51.19.89-59.88.91-61.59c18.78-.89,49.68,1.12,86.57,4.83,82.6,8.29,195.2,25.06,268.82,36.61C768.46,375,798.92,380.1,798.92,380.1Z" transform="translate(-82.53 -34.2)" fill="#6c63ff"/>
    <path id="Path_1112" data-name="Path 1112" d="M823,485.78l-42.27,20.73L565,612.31,366.19,448,326,414.73l-5.42,3.52,44.86,80.9-2.6,174.77L476.4,699.28l14.84,26.77a11.89,11.89,0,0,0,7.6,5.8l154.63,37.72A11.92,11.92,0,0,0,667,763.16l9.26-19.23,78.78,17.59a11.93,11.93,0,0,0,14.51-11.17l7.34-190.91,50.13-67,.14-1.69Z" transform="translate(-82.53 -34.2)" opacity="0.1"/>
    <path id="Path_1113" data-name="Path 1113" d="M320.57,418.25,302.74,723.58a11.92,11.92,0,0,0,9.31,12.33L785.57,841.06A11.92,11.92,0,0,0,800,830.39l27.75-338.95L565,620.31Z" transform="translate(-82.53 -34.2)" fill="#dcdfed"/>
    <path id="Path_1114" data-name="Path 1114" d="M306,730.57,552,578.8a18.06,18.06,0,0,1,23,3.6L795.18,839.19c.8.92,1.19.26,0,0L306,730.57C304.6,730.26,304.78,731.3,306,730.57Z" transform="translate(-82.53 -34.2)" opacity="0.1"/>
    <path id="Path_1115" data-name="Path 1115" d="M307.76,730.32,551.22,583.25a19.09,19.09,0,0,1,24.28,3.82L793.69,838a2.63,2.63,0,0,1-2.55,4.29L308.55,735.13a2.62,2.62,0,0,1-.79-4.81Z" transform="translate(-82.53 -34.2)" fill="#e3e5f1"/>
    <path id="Path_1116" data-name="Path 1116" d="M25.609,1.311q0,.537-.752.537l-2.234-.322q-4.49-.473-6.016-.752a39.233,39.233,0,0,1-3.91-.9A18.984,18.984,0,0,1,8.852-1.783a15.566,15.566,0,0,1-3.008-2.17A14.054,14.054,0,0,1,3.717-6.639,12.4,12.4,0,0,1,2.385-9.711a13.017,13.017,0,0,1-.451-3.48,15.454,15.454,0,0,1,1.3-5.446q1.3-3.276,1.74-4.093a14.669,14.669,0,0,1,2.213-2.621,17.048,17.048,0,0,1,4.8-3.266q1.074-.516,1.074-.773a4.2,4.2,0,0,1,1.547-.247A5.094,5.094,0,0,0,16.4-29.96a7.869,7.869,0,0,1,2.61-.312,7.086,7.086,0,0,1,1.472.14q.655.14,1.719.279t1.633.236a4.072,4.072,0,0,1,.978.279q.408.183.408.419a8.012,8.012,0,0,1-.451,1.633q-.451,1.332-1.182,1.332a1.614,1.614,0,0,1-.838-.279A5.068,5.068,0,0,0,20.12-27.7a11.825,11.825,0,0,0-2.267-.419q-.473,0-1.354.086l-1.268.086a3.407,3.407,0,0,0-.451.064,1.749,1.749,0,0,0-.709.172q-.387.215-.709.365a3.068,3.068,0,0,1-.6.215,2.388,2.388,0,0,1-.537.064H12.01l-.3.322a1.5,1.5,0,0,0-1.1.473h-.451Q4.533-20.5,4.533-14.223A11.327,11.327,0,0,0,6.768-7.466a13.642,13.642,0,0,0,6.069,4.673,20.568,20.568,0,0,0,7.853,1.568A15.5,15.5,0,0,0,23.031-1.5q1.611-.279,1.611-.6.967.021.967,3.33ZM53.561-28.467q1.5-.107,3.738,3.319a13.47,13.47,0,0,1,2.234,7.509,19.48,19.48,0,0,1-.387,3.953,13.9,13.9,0,0,1-1.16,3.416,43.254,43.254,0,0,1-2.342,4.426A13.775,13.775,0,0,1,52.2-2.234,14.321,14.321,0,0,1,48.265-.247a15,15,0,0,1-4.522.634q-5.973,0-6.424-1.053-.43-.172-1.289-.462a3.769,3.769,0,0,1-.924-.376l-.559-.687q-.752-.193-.795-.193a8.371,8.371,0,0,1-3.309-3.867,18.141,18.141,0,0,1-1.053-6.939,18.277,18.277,0,0,1,2.342-8.057A3.877,3.877,0,0,0,32-22.011a1.358,1.358,0,0,1,.516-.763,1.025,1.025,0,0,0,.44-.537q1.826-2.02,2.159-2.481a3.693,3.693,0,0,1,1.558-.956,3.089,3.089,0,0,0,1.611-1.182.322.322,0,0,1,.376-.161,1.929,1.929,0,0,0,.376.054l.172-.043a3.8,3.8,0,0,1,.312-.354q.161-.161.236-.14A13.581,13.581,0,0,0,41.4-29.09a6.575,6.575,0,0,1,1.815-.483,9.71,9.71,0,0,0,1.858-.183l1.4-.258a5.3,5.3,0,0,1,1.182.161q.687.161.924.2Q52.508-29.24,53.561-28.467ZM54.205-7.09a18.231,18.231,0,0,0,2.6-8.658,17.12,17.12,0,0,0-.623-4.812,10.535,10.535,0,0,0-1.8-3.62,9.487,9.487,0,0,0-2.771-2.4,10.862,10.862,0,0,0-4.05-1.2q-2.46-.3-2.933-.3a1.336,1.336,0,0,0-.387.226,2.566,2.566,0,0,0-.58.569,1.7,1.7,0,0,1-.709.129l-.709-.043a1.276,1.276,0,0,0-1.182.666.175.175,0,0,1-.129.043q-.107,0-.172-.215l-.322.172v.3q-.064,0-.15-.15t-.193-.15H40a6.009,6.009,0,0,0-2.385,1.182,4.369,4.369,0,0,1-.795.236,10.693,10.693,0,0,0-.784.945q-.526.688-.859,1.085a5.778,5.778,0,0,1-.645.666,1.216,1.216,0,0,0-.312.956,7.106,7.106,0,0,0-1.783,3.416,18.6,18.6,0,0,0-.666,4.984,12.224,12.224,0,0,0,.709,4.275,4.076,4.076,0,0,0,1.74,2.406v.451A14.96,14.96,0,0,0,35.643-4.49a6.606,6.606,0,0,0,2.191,1.171q1.439.5,2.438.795a18.067,18.067,0,0,0,2.234.483,15.886,15.886,0,0,0,2.46.193q.73,0,1.16-.043l1.525-.365q.687-.15,1.1-.215a9.96,9.96,0,0,0,1.139-.645L51.434-4a.989.989,0,0,0,.322-.236.628.628,0,0,0,.129-.387v-.172a2.324,2.324,0,0,1,.827-.623q.72-.408,1.149-.645a.68.68,0,0,0,.43-.58A1.013,1.013,0,0,0,54.205-7.09ZM93.543-29.219l-.387,1.375a19.6,19.6,0,0,0-.72,3.792q-.2,2.095-.247,4.9t-.2,4.834q-.161,2.03-.161,3.319l.043,2.342-.043,1.611a15.17,15.17,0,0,0,.312,2.836,14.314,14.314,0,0,1,.312,2.148,4.634,4.634,0,0,1-.4,2.052q-.4.806-.935.806-.86,0-2.686-2.384v-.43q-4.77-4.9-7.923-8.84t-6.842-8.315q-3.689-4.372-3.775-4.372-.215,0-.43.376a13.3,13.3,0,0,0-.5,2.976,57.5,57.5,0,0,0-.29,6.252q0,4.018.387,9.109l.322.6v.494q0,.709-.193.881v.043a3.47,3.47,0,0,0,.226.773,3.527,3.527,0,0,1,.226,1.2V-.58a2.051,2.051,0,0,1-1.826.795q-.282,0-.369-.344a5.982,5.982,0,0,0-1.282.387,2.514,2.514,0,0,1-.261-1.311A21.809,21.809,0,0,1,66.2-3.91a.275.275,0,0,0,.289-.193,5.979,5.979,0,0,0,.12-1.085q.054-.892.14-1.536a1.117,1.117,0,0,1-.322-.623l.043-.129a1.006,1.006,0,0,0,.408-.924l.086-2.557-.043-3.437a19.736,19.736,0,0,1,.172-3.169,8.334,8.334,0,0,0,.172-1.214q0-.344-.064-1.085t-.064-.827a18.294,18.294,0,0,1,.129-2.428,16.49,16.49,0,0,0,.129-2.234l-.172-.73a3.789,3.789,0,0,0,.086-1.031q0-.988-.043-1.568a2.987,2.987,0,0,1,.389-.44q.237-.226.345-.333a.414.414,0,0,1,.162-.118q.054-.011.572-.161.432.043,1.489,1.647a28.162,28.162,0,0,0,3.851,4.76q-.043,0-.043.086a17.371,17.371,0,0,0,2.327,2.786q2.327,2.549,5.436,6.4l1.93,2.409q1.008,1.226,2.018,2.4t2.374,2.621a10.239,10.239,0,0,0,1.6,1.536,1.161,1.161,0,0,0,.344.086q.172,0,.172-.279l-.043-1.482.086-2.771-.043-3.738q0-2.191.086-5.822l.107-3.158a2.7,2.7,0,0,0-.279-1.547.952.952,0,0,1-.043-.3,3,3,0,0,1,.064-.548,2.9,2.9,0,0,0,.064-.462.666.666,0,0,0-.043-.279,5.991,5.991,0,0,0,.043-.838,2.326,2.326,0,0,0-.129-.816,2.543,2.543,0,0,1-.129-.881,1.325,1.325,0,0,1,.516-1.1,2.153,2.153,0,0,1,1.375-.408l.451.043h.645A1.169,1.169,0,0,1,93.543-29.219Zm29.777.3a4.933,4.933,0,0,1-.474,1.719q-.452.086-.495.086-.754,0-1.787-.086t-1.378-.086a1.409,1.409,0,0,0-.409.043q-.323-.43-2.906-.43l-3.616.172h-.129a.7.7,0,0,0-.387.129,26.552,26.552,0,0,0-.709,4.984q-.215,3.18-.215,5.049l.129,2.428-.288,1.482a11.741,11.741,0,0,0-.154,1.45q-.031.72-.031,1.644l.258,4.619q0,.816-.215.924.193.021.387,1.225a17.526,17.526,0,0,0,.365,1.815,4.422,4.422,0,0,1,.172.741q0,.3-1.139.709a.4.4,0,0,1,.043.215q0,.172-.129.172t-.258-.258a3.136,3.136,0,0,1-.752.473.548.548,0,0,0-.58-.387q-.215,0-.623.043T107.4,0h-.172q.451-.236.322-1.59-.064-.709-.064-1.1a1.286,1.286,0,0,1,.064-.193q.73-1.912.73-7.992l.129-9.818A24.507,24.507,0,0,0,108-26.576a.665.665,0,0,0,.064-.3.713.713,0,0,0-.086-.376q-.086-.14-.473-.183l-1.289-.107q-.881-.086-1.246-.086-1.719,0-2.02.559a1.4,1.4,0,0,0-.709-.215,1.861,1.861,0,0,0-.72.183,3.011,3.011,0,0,1-1.171.183,2.143,2.143,0,0,1-1.439-.494.774.774,0,0,1-.064-.344,2.83,2.83,0,0,1,.2-.849,2.879,2.879,0,0,0,.2-.913v-.086a1.5,1.5,0,0,1,.752-.172q.279,0,1.708.215a21.085,21.085,0,0,0,3.126.215h3.223a8.494,8.494,0,0,0,2.148-.258l.129-.279q.258.086.3.193l.365-.086a.994.994,0,0,1,.591.322,5.221,5.221,0,0,0,.548.451,9.193,9.193,0,0,0,.967-.107,10.05,10.05,0,0,1,1.418-.107l3.5-.086.623.086h.172q.365,0,1.3-.107a13.859,13.859,0,0,1,1.515-.107Q123.063-29.434,123.32-28.918Zm17.338-.86q1.723,5.928,10.828,25.5a5.928,5.928,0,0,1,1.225,3.094.8.8,0,0,1-.2.537,4.258,4.258,0,0,1-1.5.623q-1.3.387-1.708.559a1.19,1.19,0,0,1-.322-.752,3.586,3.586,0,0,1,.086-.73l.107-.322a12.692,12.692,0,0,0-.7-2.921,41.616,41.616,0,0,0-2.4-5.63,1,1,0,0,1-.354-.484q-.182-.4-.913-.4a1.108,1.108,0,0,0-.795.409q-.064-.172-.9-.323l-.644-.172h-.645a12.534,12.534,0,0,0-3.04.247q-.848.247-.891.247a.523.523,0,0,1-.473-.322,5.5,5.5,0,0,1-1.965.279,9.341,9.341,0,0,0-1.257-.086,9.917,9.917,0,0,0-2.631.333,9.083,9.083,0,0,1-1.568.344q-.354.011-.677.548l-.3-.215q-2.192,4.533-3.265,7.132a7.651,7.651,0,0,1-.677,2.739q-.548,1.128-1,1.128h-.043a17.893,17.893,0,0,0-2.986-.709A.366.366,0,0,1,120.7.494a1.722,1.722,0,0,1,.752-1.321,2.748,2.748,0,0,0,.859-.935A6.878,6.878,0,0,1,123.6-3.609a20.578,20.578,0,0,0,1.947-3.039,13.266,13.266,0,0,1,1.925-2.846q.021-.945,2.054-4.059t3.517-5.842q1.484-2.728,1.656-2.942,2.974-4.279,2.974-5.827v-.086q.494,0,.494-.215v-.215a2.492,2.492,0,0,1,1.053-1.72l.3.129q.559-.71.881-.71.387,0,.387.58A1.468,1.468,0,0,1,140.658-29.778Zm1.05,17.639a4.51,4.51,0,0,1,1.246-.172q1.482-.279,1.482-.838,0-.043-2.491-6.359t-3.264-6.316q-.537,0-2.095,2.986T133.1-16.7q-1.934,3.147-1.934,3.856,0,.494.644.666a5.394,5.394,0,0,0,.752.172l.408-.043a6.154,6.154,0,0,1,.988.107,6.066,6.066,0,0,0,.859.107,13.219,13.219,0,0,0,1.686-.172,14.34,14.34,0,0,1,1.471-.172,3.823,3.823,0,0,1,.73.086,3.772,3.772,0,0,0,.559.086.441.441,0,0,0,.429-.3,3.209,3.209,0,0,0,.967.172l.666-.043A1.441,1.441,0,0,1,141.708-12.139ZM179.867,1.311q0,.537-.752.537l-2.234-.322q-4.49-.473-6.016-.752a39.233,39.233,0,0,1-3.91-.9,18.984,18.984,0,0,1-3.846-1.654,15.567,15.567,0,0,1-3.008-2.17,14.055,14.055,0,0,1-2.127-2.686,12.4,12.4,0,0,1-1.332-3.072,13.017,13.017,0,0,1-.451-3.48,15.454,15.454,0,0,1,1.3-5.446q1.3-3.276,1.74-4.093a14.669,14.669,0,0,1,2.213-2.621,17.048,17.048,0,0,1,4.8-3.266q1.074-.516,1.074-.773a4.2,4.2,0,0,1,1.547-.247,5.094,5.094,0,0,0,1.794-.322,7.87,7.87,0,0,1,2.61-.312,7.086,7.086,0,0,1,1.472.14q.655.14,1.719.279t1.633.236a4.072,4.072,0,0,1,.978.279q.408.183.408.419a8.012,8.012,0,0,1-.451,1.633q-.451,1.332-1.182,1.332a1.614,1.614,0,0,1-.838-.279,5.068,5.068,0,0,0-2.632-1.472,11.825,11.825,0,0,0-2.267-.419q-.473,0-1.354.086l-1.268.086a3.407,3.407,0,0,0-.451.064,1.749,1.749,0,0,0-.709.172q-.387.215-.709.365a3.068,3.068,0,0,1-.6.215,2.388,2.388,0,0,1-.537.064h-.215l-.3.322a1.5,1.5,0,0,0-1.1.473h-.451q-5.629,5.779-5.629,12.053a11.327,11.327,0,0,0,2.234,6.757,13.642,13.642,0,0,0,6.069,4.673,20.568,20.568,0,0,0,7.853,1.568,15.5,15.5,0,0,0,2.342-.279q1.611-.279,1.611-.6.967.021.967,3.33Zm27.586-30.229a4.933,4.933,0,0,1-.474,1.719q-.452.086-.495.086-.754,0-1.787-.086t-1.378-.086a1.409,1.409,0,0,0-.409.043q-.323-.43-2.906-.43l-3.616.172h-.129a.7.7,0,0,0-.387.129,26.553,26.553,0,0,0-.709,4.984q-.215,3.18-.215,5.049l.129,2.428-.288,1.482a11.738,11.738,0,0,0-.154,1.45q-.031.72-.031,1.644l.258,4.619q0,.816-.215.924.193.021.387,1.225a17.528,17.528,0,0,0,.365,1.815,4.422,4.422,0,0,1,.172.741q0,.3-1.139.709a.4.4,0,0,1,.043.215q0,.172-.129.172t-.258-.258a3.136,3.136,0,0,1-.752.473.548.548,0,0,0-.58-.387q-.215,0-.623.043t-.6.043h-.172q.451-.236.322-1.59-.064-.709-.064-1.1a1.286,1.286,0,0,1,.064-.193q.73-1.912.73-7.992l.129-9.818a24.507,24.507,0,0,0-.408-5.887.665.665,0,0,0,.064-.3.713.713,0,0,0-.086-.376q-.086-.14-.473-.183l-1.289-.107q-.881-.086-1.246-.086-1.719,0-2.02.559a1.4,1.4,0,0,0-.709-.215,1.861,1.861,0,0,0-.72.183,3.011,3.011,0,0,1-1.171.183,2.143,2.143,0,0,1-1.439-.494.774.774,0,0,1-.064-.344,2.83,2.83,0,0,1,.2-.849,2.88,2.88,0,0,0,.2-.913v-.086a1.5,1.5,0,0,1,.752-.172q.279,0,1.708.215a21.085,21.085,0,0,0,3.126.215H192.2a8.494,8.494,0,0,0,2.148-.258l.129-.279q.258.086.3.193l.365-.086a.994.994,0,0,1,.591.322,5.221,5.221,0,0,0,.548.451,9.193,9.193,0,0,0,.967-.107,10.05,10.05,0,0,1,1.418-.107l3.5-.086.623.086h.172q.365,0,1.3-.107a13.859,13.859,0,0,1,1.515-.107Q207.2-29.434,207.453-28.918Z" transform="matrix(0.985, 0.174, -0.174, 0.985, 383.008, 367.994)" fill="#fff"/>
  </g>
</svg>
