<?xml version="1.0" encoding="utf-8"?>
<!-- Generator: Adobe Illustrator 24.1.1, SVG Export Plug-In . SVG Version: 6.00 Build 0)  -->
<svg version="1.1" id="bfad9f77-0abd-4173-8308-819d02b95b56"
	 xmlns="http://www.w3.org/2000/svg" xmlns:xlink="http://www.w3.org/1999/xlink" x="0px" y="0px" viewBox="0 0 722.8 670"
	 style="enable-background:new 0 0 722.8 670;" xml:space="preserve">
<style type="text/css">
	.st0{fill:#3F3D56;}
	.st1{fill:#6C63FF;}
	.st2{fill:#FF6584;}
	.st3{opacity:0.2;enable-background:new    ;}
	.st4{fill:#E6E6E6;}
	.st5{fill:#FFB9B9;}
	.st6{fill:#2F2E41;}
</style>
<ellipse class="st0" cx="358" cy="646" rx="358" ry="24"/>
<rect x="352" y="384" class="st0" width="12" height="7"/>
<rect x="376" y="384" class="st0" width="12" height="7"/>
<rect x="400" y="384" class="st0" width="12" height="7"/>
<rect x="424" y="384" class="st0" width="12" height="7"/>
<rect x="448" y="384" class="st0" width="12" height="7"/>
<rect x="472" y="384" class="st0" width="12" height="7"/>
<rect x="496" y="384" class="st0" width="12" height="7"/>
<rect x="520" y="384" class="st0" width="12" height="7"/>
<rect x="544" y="384" class="st0" width="12" height="7"/>
<rect x="568" y="384" class="st0" width="12" height="7"/>
<rect x="592" y="384" class="st0" width="12" height="7"/>
<path class="st0" d="M631.5,388.5c0,79.5-64.5,144-144,144s-144-64.5-144-144H631.5z"/>
<path class="st0" d="M624.5,389.4l-91.6-273c75.3-25.3,156.9,15.2,182.3,90.5c0,0.1,0,0.1,0.1,0.2c1,2.9,1.8,5.8,2.6,8.7
	C737.5,289.3,696.6,365.3,624.5,389.4z"/>
<circle class="st0" cx="628" cy="393" r="18"/>
<path class="st1" d="M445,426c-2.8,0-5,2.2-5,5s2.2,5,5,5h86c2.8,0,5-2.2,5-5s-2.2-5-5-5H445z"/>
<polygon class="st0" points="607,649 589.1,649.7 524.6,511 540.9,503.4 "/>
<polygon class="st0" points="368,649 385.9,649.7 450.4,511 434.1,503.4 "/>
<rect x="414" y="569" class="st0" width="148" height="10"/>
<path class="st1" d="M536.6,111.3c-2.5,0-4.5,2-4.5,4.5c0,0.4,0.1,0.9,0.2,1.3l3.8,12.4c0.7,2.4,3.2,3.7,5.6,3
	c2.4-0.7,3.7-3.2,3-5.6l-3.8-12.4C540.3,112.6,538.6,111.3,536.6,111.3z"/>
<path class="st1" d="M337.5,391c-2.5,0-4.5,2-4.5,4.5s2,4.5,4.5,4.5h13c2.5,0,4.5-2,4.5-4.5s-2-4.5-4.5-4.5H337.5z"/>
<path class="st2" d="M445,358h-54c-0.3,0-0.7,0-1,0c-7.7,0.6-13.5,7.2-13,15c0.5,6.9,6,12.5,12.9,13c0.3,0,0.7,0,1,0h54
	c7.7,0,14-6.3,14-14S452.7,358,445,358L445,358z"/>
<path class="st3" d="M385.6,384.9c9.2-1.2,16.4-12.8,16.4-26.9h-2c0,13.8-7.2,25-16,25v1.1L385.6,384.9z"/>
<path class="st3" d="M405,385v-2c8.8,0,16-11.2,16-25h2C423,372.9,414.9,385,405,385z"/>
<path class="st3" d="M426,385v-2c8.8,0,16-11.2,16-25h2C444,372.9,435.9,385,426,385z"/>
<path class="st2" d="M543,358h-54c-0.3,0-0.7,0-1,0c-7.7,0.6-13.5,7.2-13,15c0.5,6.9,6,12.5,12.9,13c0.3,0,0.7,0,1,0h54
	c7.7,0,14-6.3,14-14S550.7,358,543,358L543,358L543,358z"/>
<path class="st3" d="M483.6,384.9c9.2-1.2,16.4-12.8,16.4-26.9h-2c0,13.8-7.2,25-16,25v1.1L483.6,384.9z"/>
<path class="st3" d="M503,385v-2c8.8,0,16-11.2,16-25h2C521,372.9,512.9,385,503,385z"/>
<path class="st3" d="M524,385v-2c8.8,0,16-11.2,16-25h2C542,372.9,533.9,385,524,385z"/>
<path class="st4" d="M441,223.6c-7.1-3.8-15.8,0.3-19.4,7.1c-4.3,8.2-0.7,18.1,4.3,25.2c5.2,7.3,12.3,13.3,15.7,21.8
	c6.9,16.4,0.8,35.4-14.2,44.9c-3.3,2.1-0.2,7.3,3,5.2c14.6-9.1,22.3-26.2,19.3-43.2c-0.7-4.3-2.1-8.5-4.1-12.4
	c-2.2-4-4.8-7.7-7.8-11c-5.2-6.2-11.8-13-12.1-21.5c-0.1-1.1,0-2.2,0.2-3.3c0.2-0.8,0.4-1.5,0.7-2.2c0.7-1.5,1.8-2.9,3.2-3.9
	c1.2-1,2.7-1.7,4.3-1.9c1.3-0.2,2.7,0,3.8,0.6C441.4,230.6,444.5,225.4,441,223.6L441,223.6z"/>
<path class="st4" d="M531.3,259.9c-6.1-2-12.9-0.4-17.5,4.1c-2.4,2.5-3.4,5.9-2.8,9.3c0.6,3.6,2.9,6.9,5.4,9.5
	c4.9,5.1,11.7,8.4,15.8,14.2c1.8,2.5,2.9,5.4,3.3,8.5c0.2,2.7-0.3,5.5-1.5,8c-3,6.2-9.1,10.4-15.5,13.1c-1.5,0.6-1.8,2.8-1.1,4.1
	c0.9,1.4,2.7,1.9,4.1,1.1c11.7-5,22.6-16.2,19.4-29.9c-1.7-7.2-6.9-12.3-12.6-16.8c-2.8-2-5.4-4.3-7.9-6.7c-1.9-2.1-4-4.9-3.6-7.7
	c0.1-1,0.6-1.9,1.3-2.5c0.9-0.8,1.9-1.5,3-2c2.7-1.3,5.8-1.5,8.6-0.4c1.6,0.4,3.2-0.5,3.7-2.1C533.8,262,532.9,260.3,531.3,259.9
	L531.3,259.9z"/>
<path class="st4" d="M485.7,174.5c-1.8-1.5-4-2.4-6.4-2.5c-2.2,0-4.4,0.7-6.2,2c-4.1,3-7.1,7.4-8.3,12.4c-3,11.6,0.9,24.1,6.4,34.4
	c2.8,5.2,6,10.1,8.8,15.2c2.7,4.9,4.8,10.2,6.2,15.6c2.8,11.2,3.1,22.8,0.7,34.1c-2.4,11.2-7.5,22.4-16,30.1c-1.2,1.2-1.2,3.1,0,4.2
	c1.2,1.2,3.1,1.2,4.2,0c7.6-6.9,12.7-16.3,15.8-26c3.4-11,4.4-22.5,2.9-33.9c-0.7-5.7-2-11.2-3.8-16.6c-2-5.4-4.6-10.6-7.6-15.6
	c-5.6-9.5-11.6-19.2-12.5-30.5c-0.4-5.6,0.3-11.4,3.8-15.9c-0.2,0.2,0.2-0.2,0.2-0.2c0.2-0.3,0.4-0.5,0.7-0.7
	c0.4-0.5,0.9-0.9,1.4-1.3c-0.1,0.1-0.4,0.3,0.1-0.1c0.2-0.2,0.5-0.3,0.7-0.5c0.2-0.1,0.4-0.2,0.6-0.3c0.1-0.1,0.3-0.1,0.4-0.2
	c-0.3,0.1-0.3,0.1,0,0c0.2-0.1,1.4-0.3,0.8-0.2c0.2,0,0.4,0,0.6,0c0.1,0,0.9,0,0.5,0c-0.5-0.1,0.4,0.1,0.4,0.1
	c0.3,0.1,0.5,0.1,0.8,0.2c-0.6-0.2,1,0.7,0.6,0.4c1.2,1.1,3.1,1.1,4.2,0C486.7,177.7,486.9,175.5,485.7,174.5L485.7,174.5z"/>
<polygon class="st5" points="255.3,625.4 232.7,631.4 191.1,439.4 237.7,435.2 "/>
<polygon class="st5" points="151.8,628.4 128.7,631.8 108.3,436.4 155.1,437.4 "/>
<path class="st5" d="M139.9,350.3l2.1,39.9c0.3,5.6-4,10.5-9.7,10.8c-0.5,0-1,0-1.5,0l0,0c-4.9-0.4-8.8-4.4-9.3-9.3l-3.9-44.1
	L87.3,244.1l0.9-66.5l36,1.8L139.9,350.3z"/>
<path class="st6" d="M159.3,448.1c-18-6.3-39-7.5-62.8-3.7c3.4-40,5.3-77.2,3.7-107.1H223L159.3,448.1z"/>
<path class="st6" d="M245.1,447.2c-18.6,9.8-45.5,14.5-76.6,16.6l-38.8-123.7l95.1-1.8L245.1,447.2z"/>
<path class="st6" d="M293,645.5l-66.9,2.5c-8.6,0.3-9-7-7.4-15.5l7.9-22.6c17.8,17.5,19.5,18.4,27.2-6.4l23.3,18.4l17.3,3
	c5,0.9,8.6,5.2,8.6,10.3l0,0C303,640.7,298.6,645.3,293,645.5z"/>
<path class="st6" d="M191.7,645.5l-66.9,2.5c-8.6,0.3-9-7-7.4-15.5l7.9-22.6c17.8,17.5,19.5,18.4,27.2-6.4l23.3,18.4l17.3,3
	c5,0.9,8.6,5.2,8.6,10.3l0,0C201.7,640.7,197.3,645.3,191.7,645.5z"/>
<circle class="st5" cx="207.3" cy="43.8" r="36"/>
<polygon class="st5" points="188.8,107.5 146.4,94.6 175,52.1 207.3,66 "/>
<path class="st1" d="M228.5,348.4c-43.7,9.8-92.1,5.9-133.9-5.5c10-55.7,5.2-115.6-4.6-164.3c-7.7-38.1,12.5-70.1,46.2-85.9
	c7.2-2.6,14.7-4.3,22.4-5c23.6-2.1,44.3,15.6,46.8,39.1L228.5,348.4z"/>
<polygon class="st1" points="115,197 84.5,193.4 93.7,145.3 115,145.3 "/>
<path class="st6" d="M206.8,49.5l-5.5-2.5c-4.8-2.1-10.3,0-12.4,4.8c-0.2,0.5-0.4,0.9-0.5,1.4l0,0l-7.7,13.9l-19.1-3l0.7-29.4
	c3.5-22.4,24.5-37.7,47-34.2c0.9,0.1,1.8,0.3,2.6,0.5l0.5,0.1c9.3,2.1,21.5,9,27.8,16.2l11.8,13.4c1.7,1.9,1.5,4.9-0.4,6.5
	c-0.7,0.6-1.6,1-2.5,1.1l-16.1,1.8L206.8,49.5z"/>
<path class="st4" d="M326.2,295l-20.7,18.1c-0.6,0.5-1.6,0.5-2.1-0.1c-0.5-0.6-0.5-1.6,0.1-2.1l20.7-18.1l-4-4.5l-20.7,18.1
	c-0.6,0.5-1.6,0.5-2.1-0.1c-0.5-0.6-0.5-1.6,0.1-2.1l20.7-18.1l-4-4.5l-20.7,18.1c-0.6,0.5-1.6,0.5-2.1-0.1
	c-0.5-0.6-0.5-1.6,0.1-2.1c0,0,0,0,0,0l20.7-18.1l-4.9-5.6l-29.2,25.6c-5.4,4.7-6.7,12.5-3.2,18.8l-88.2,77.4l7.9,9l88.1-77.3
	c5.5,4.4,13.4,4.2,18.7-0.5l29.6-25.9L326.2,295z"/>
<path class="st5" d="M225.7,350.3l2.1,39.9c0.3,5.6-4,10.5-9.7,10.8c-0.5,0-1,0-1.5,0l0,0c-4.9-0.4-8.8-4.4-9.3-9.3l-3.9-44.1
	l-30.5-103.4l0.9-66.5l36,1.8L225.7,350.3z"/>
<path class="st1" d="M212.8,189.7c-11-10.5-25.4-10.9-41.5-6.5v-49.6c0-12.4,10-22.4,22.4-22.4l0,0c11.3,0,20.5,9.2,20.5,20.5
	c0,0.2,0,0.3,0,0.5L212.8,189.7z"/>
</svg>
