<?xml version="1.0" encoding="utf-8"?>
<!-- Generator: Adobe Illustrator 24.1.1, SVG Export Plug-In . SVG Version: 6.00 Build 0)  -->
<svg version="1.1" id="ed496bca-411e-4352-921a-b250292c645a"
	 xmlns="http://www.w3.org/2000/svg" xmlns:xlink="http://www.w3.org/1999/xlink" x="0px" y="0px" viewBox="0 0 745.6 676.9"
	 style="enable-background:new 0 0 745.6 676.9;" xml:space="preserve">
<style type="text/css">
	.st0{fill:#E6E6E6;}
	.st1{fill:#FFB9B9;}
	.st2{fill:#2F2E41;}
	.st3{fill:#6C63FF;}
	.st4{opacity:0.3;enable-background:new    ;}
	.st5{fill:#FFFFFF;}
	.st6{fill:#3F3D56;}
</style>
<ellipse class="st0" cx="137.8" cy="656.9" rx="137.8" ry="20"/>
<path class="st0" d="M217.9,649.1c-16.5-1.4-37.9-13.6-36.5-34.5c0.7-10.4,7.7-18,15.4-23.3c10.6-7.4,23.2-11.3,35.6-13.6
	c14.3-2.6,28.9-2.9,43.4-3.1c14.3-0.2,28.6-0.6,42.9-1.6c28.2-2,56.2-5.7,83.8-11.2c27.1-5.4,53.9-12.5,80.2-21.3
	c13-4.4,25.9-9.1,38.7-14.3c11.9-4.9,23.8-9.9,35.1-16.2c14.9-8.3,38.8-23.9,33.7-46c-2.7-11.7-12.5-20.1-21.9-25.5
	c-11.4-6.6-24.1-10.2-36.5-13.7c-57.8-16.4-115.6-32.4-173.4-48.6c-13.5-3.8-27-7.4-40.3-12.2c-12.4-4.5-24.9-9.9-35.5-18.4
	c-9.3-7.4-18.1-17.8-19.6-30.5c-1.2-10.6,3.4-20.3,9.6-28c15.4-19,39.5-29.1,61.6-35.6c27.5-8.2,55.9-12,83.5-20
	c22.2-6.5,45.6-16.3,61.9-34.2c6.3-6.9,11.5-15.3,12.8-25.1c1.3-9.6-1.6-19-7-26.8c-6.3-9.2-15.4-15.9-24.6-21.2
	c-10.9-6.1-22.6-10.6-34.8-13.4c-26.2-6.4-53.1-8-79.6-12c-13-2-26.2-4.3-38.7-9.1c-10.6-4-22.3-9.8-29.2-19.8
	c-14.3-20.6,10.9-37.5,25.5-44.5c10-4.7,20.4-8.6,30.9-11.9c2.2-0.7,0.8-4.4-1.5-3.7c-11,3.5-22,7.4-32.5,12.6
	c-8.8,4.4-17.7,9.8-24,17.9c-5.3,6.8-7.9,15.8-5.1,24.6c3.4,10.4,12.8,17.4,21.4,22.3c11.4,6.4,23.9,10,36.4,12.5
	c13.2,2.7,26.5,4.4,39.8,6c26.6,3.2,54.3,5.6,79.4,16.7c17.6,7.8,42.2,23.6,39.9,47.5c-1,10.6-7.2,19.7-14.2,26.7
	c-8.5,8.5-18.7,14.8-29.3,20c-49.1,24-107.3,19.5-154.3,49.4c-16,10.2-34.7,27.3-31.8,49.9c1.5,11.7,8.7,21.7,16.8,29.2
	c9.8,9,21.8,15.1,33.7,19.8c12.7,5.1,25.7,8.8,38.7,12.4c14.5,4.1,29,8.1,43.5,12.2l88,24.7l43.7,12.3c13.3,3.7,27,7.2,39.5,13.7
	c10.3,5.3,22.8,14.5,23.7,28c0.7,10.7-6.8,19.5-13.9,25.7c-9.2,8-20,13.8-30.8,18.9c-12.5,5.9-25.3,11.1-38.1,15.9
	c-26.5,10-53.6,18.2-81.2,24.6c-27.7,6.4-55.7,11.1-83.9,14c-14.3,1.5-28.6,2.4-43,3c-14.8,0.5-29.7,0.3-44.4,1.3
	c-13.4,0.9-26.7,2.9-39.4,7.6c-10.6,3.9-21.5,9.7-28.6,19.2c-5.1,6.7-7.1,15.3-5.5,23.7c1.8,8.3,6.4,15.7,13.1,20.9
	c7.5,5.9,16.6,9.5,26.1,10.2C219.8,653.2,220.2,649.3,217.9,649.1L217.9,649.1z"/>
<polygon class="st1" points="113.6,103.4 112.6,128.4 144.6,150.4 149.6,103.4 "/>
<path class="st1" d="M188.6,231.4l11,32l22,76c0,0,22,37,3,38s-15-33-15-33l-31-54l-7-57L188.6,231.4z"/>
<path class="st1" d="M178.4,603.1c0,0,7.3,19.9,14.7,29.5s-4,15.8-4,15.8l-36.4-4.3c0,0,2.2-31.8-0.6-37.1L178.4,603.1z"/>
<path class="st2" d="M187,638.2c0,0,5.8-14.5,9.1-8.3s16.5,13.8,16.5,13.8s35.1,6.1,9,16.7s-42.5,1.3-42.5,1.3s-24.6,0.7-27.4-4.6
	s-3.7-25.6,1.5-22.5S181.4,646.9,187,638.2z"/>
<path class="st1" d="M109.6,577.4c0,0-3,21-1,33s-11,12-11,12l-30-21c0,0,17-27,17-33L109.6,577.4z"/>
<path class="st2" d="M184.6,351.4c0,0-8,97-24,133s-41,106-41,106l-42-15c0,0,20-91,38-104l12-145L184.6,351.4z"/>
<path class="st2" d="M169.6,353.4l-14,53l30,198l-38,9l-48-223c0,0-15-29-6-57S169.6,353.4,169.6,353.4z"/>
<path class="st2" d="M100.6,612.4c0,0,12-10,12-3s8,20,8,20s28,22,0,19s-38-19-38-19s-22-11-22-17s8.9-24.3,12-19.1
	S91.6,617.4,100.6,612.4z"/>
<circle class="st1" cx="130.6" cy="86.4" r="30"/>
<path class="st3" d="M110.6,116.4l32,25l6-14l7,12c0,0,35,19,35,27s1,185,1,185s-31,30-61-12s-40,21-40,21l-8-123l-12-80
	c0,0,2-4,8-8s27-20,27-20L110.6,116.4z"/>
<polygon class="st3" points="178.6,160.4 191.6,165.4 203.6,233.4 176.6,239.4 "/>
<path class="st1" d="M50.6,227.4l-9,46l61,62c0,0,15,30,27,17s-21-30-21-30l-38-62l9-22L50.6,227.4z"/>
<path class="st2" d="M95.8,67c0,0-5.6-12.2,8.9-17.8c0,0,12.2-20,36.7-6.7c0,0,16.7,6.7,16.7,24.5s5.6,21.1,5.6,21.1
	s-8.3-8.5-10.5-15.2s-19.5-8.2-26.2-1.5S103.6,77,103.6,77l1.1,24.5c0,0-5.6-14.5-7.8-14.5S92.5,67,95.8,67z"/>
<polygon class="st3" points="81.6,157.4 70.6,157.4 44.6,233.4 80.6,244.4 100.6,194.4 "/>
<polygon class="st4" points="128.7,565.4 116.1,471.9 134.1,550.9 "/>
<path class="st0" d="M220.7,359.9c-1.9,0-3.5,1.6-3.5,3.5v193.6c0,1.9,1.6,3.5,3.5,3.5h521.4c1.9,0,3.5-1.6,3.5-3.5V363.4
	c0-1.9-1.6-3.5-3.5-3.5H220.7z"/>
<path class="st5" d="M237.3,374.8c-1.4,0-2.5,1.1-2.5,2.5v165.8c0,1.4,1.1,2.5,2.5,2.5h488.2c1.4,0,2.5-1.1,2.5-2.5V377.3
	c0-1.4-1.1-2.5-2.5-2.5H237.3z"/>
<path class="st0" d="M326.3,140.8c-3.4,0.1-6,2.8-6,6.2v139.9c0,3.4,2.6,6.1,6,6.2h311c3.4-0.1,6-2.8,6-6.2V146.9
	c0-3.4-2.6-6.1-6-6.2L326.3,140.8z"/>
<path class="st0" d="M326.3,0c-3.3,0-6,3-6,6.8v97.5c0,3.7,2.7,6.8,6,6.8h311c3.3,0,6-3,6-6.8V6.8c0-3.7-2.7-6.8-6-6.8L326.3,0z"/>
<rect x="358.8" y="25.3" class="st5" width="246" height="14"/>
<rect x="359.3" y="54.8" class="st5" width="246" height="6.5"/>
<rect x="359.3" y="77.8" class="st5" width="246" height="6.5"/>
<path class="st5" d="M504.9,293.3h113.2c2,0,3.6-1.6,3.6-3.6c0-1-0.4-1.9-1.1-2.6l-72.5-72.5c-1.4-1.4-3.7-1.4-5.2,0l-18,18
	c-3,3-7.8,3-10.8,0c0,0,0,0,0,0l-56.4-56.4c-1.4-1.4-3.7-1.4-5.2,0L342.3,286.5c-1.4,1.4-1.4,3.7,0,5.2c0.7,0.7,1.6,1.1,2.6,1.1
	h160.2L504.9,293.3z"/>
<circle class="st5" cx="370.3" cy="173.8" r="14"/>
<path class="st0" d="M314.1,471.4c-0.8,0-1.5,0.7-1.5,1.5v10c0,0.8,0.7,1.5,1.5,1.5h342c0.8,0,1.5-0.7,1.5-1.5v-10
	c0-0.8-0.7-1.5-1.5-1.5H314.1z"/>
<path class="st6" d="M326.3,325.8c-3.4,0.1-6,2.8-6,6.2v139.9c0,3.4,2.6,6.1,6,6.2h311c3.4-0.1,6-2.8,6-6.2V331.9
	c0-3.4-2.6-6.1-6-6.2H326.3z"/>
<path class="st3" d="M504.9,478.3h113.2c2,0,3.6-1.6,3.6-3.6c0-1-0.4-1.9-1.1-2.6l-72.5-72.5c-1.4-1.4-3.7-1.4-5.2,0l-18,18
	c-3,3-7.8,3-10.8,0c0,0,0,0,0,0l-56.4-56.4c-1.4-1.4-3.7-1.4-5.2,0L342.3,471.5c-1.4,1.4-1.4,3.7,0,5.2c0.7,0.7,1.6,1.1,2.6,1.1
	h160.2L504.9,478.3z"/>
<circle class="st3" cx="370.3" cy="358.8" r="14"/>
</svg>
